Coordinates
version=1
nRows=10
nColumns=40
inDegrees=yes

Units are S.I. units (second, meters, Newtons, ...)
If the header above contains a line with 'inDegrees', this indicates whether rotational values are in degrees (yes) or radians (no).

endheader
time	pelvis_tilt	pelvis_list	pelvis_rotation	pelvis_tx	pelvis_ty	pelvis_tz	hip_flexion_r	hip_adduction_r	hip_rotation_r	knee_angle_r	knee_angle_r_beta	ankle_angle_r	subtalar_angle_r	mtp_angle_r	hip_flexion_l	hip_adduction_l	hip_rotation_l	knee_angle_l	knee_angle_l_beta	ankle_angle_l	subtalar_angle_l	mtp_angle_l	lumbar_extension	lumbar_bending	lumbar_rotation	arm_flex_r	arm_add_r	arm_rot_r	elbow_flex_r	pro_sup_r	wrist_flex_r	wrist_dev_r	arm_flex_l	arm_add_l	arm_rot_l	elbow_flex_l	pro_sup_l	wrist_flex_l	wrist_dev_l
      2.05000000	      5.47449826	      3.21835391	     -1.09469303	     -0.38017777	      0.88593537	     -0.80887606	     24.90624926	     -3.46993790	    -12.29869071	     55.23079283	      0.96395918	     14.34130865	      0.00000000	      0.00000000	     40.29415790	     -3.34628598	     -6.12607667	     22.01339934	      0.38420630	    -19.77925434	      0.00000000	      0.00000000	    -21.91088448	      0.81066064	     -2.25510267	     88.57690606	    -16.47258267	     49.51018093	     55.92427682	     86.80552621	      0.00000000	      0.00000000	     87.90677890	     -6.92561061	     44.25706707	     48.09648625	     83.80444101	      0.00000000	      0.00000000
      2.05500000	      5.51778603	      3.20792204	     -1.02788886	     -0.38054855	      0.88499673	     -0.80914779	     25.00827882	     -3.51642542	    -12.35758685	     55.49127607	      0.96850547	     14.47731245	      0.00000000	      0.00000000	     40.33381705	     -3.31875522	     -6.08511059	     22.01388812	      0.38421483	    -19.82317834	      0.00000000	      0.00000000	    -22.03029993	      0.83080920	     -2.33888042	     88.66789681	    -16.48578451	     49.49147847	     55.88874349	     86.82046508	      0.00000000	      0.00000000	     88.00409241	     -6.86119999	     44.16605266	     48.00844460	     83.82973729	      0.00000000	      0.00000000
      2.06000000	      5.51603458	      3.19029752	     -1.01660893	     -0.38106619	      0.88390490	     -0.80930908	     25.18914969	     -3.49539964	    -12.28801348	     55.77684729	      0.97348963	     14.62613932	      0.00000000	      0.00000000	     40.40865623	     -3.32782833	     -6.04864960	     21.99019316	      0.38380127	    -19.79786790	      0.00000000	      0.00000000	    -22.12545621	      0.84132423	     -2.42702197	     88.78122807	    -16.39709286	     49.40212801	     55.81739388	     86.88467436	      0.00000000	      0.00000000	     88.15771975	     -6.94447395	     44.28733487	     48.05395491	     83.15361802	      0.00000000	      0.00000000
      2.06500000	      5.57757200	      3.22345971	     -0.97168611	     -0.38154454	      0.88292401	     -0.80957891	     25.30124967	     -3.56589900	    -12.26252284	     56.08410574	      0.97885230	     14.79741920	      0.00000000	      0.00000000	     40.39364321	     -3.27233604	     -6.01046981	     21.92949161	      0.38274183	    -19.88317341	      0.00000000	      0.00000000	    -22.26890961	      0.83091466	     -2.49157864	     88.96560591	    -16.42912672	     49.83048089	     55.86564713	     84.30227008	      0.00000000	      0.00000000	     88.22899893	     -6.81546045	     44.18865030	     47.91903205	     79.83892885	      0.00000000	      0.00000000
      2.07000000	      5.56368056	      3.19046339	     -0.96195489	     -0.38197921	      0.88186559	     -0.80969220	     25.48952503	     -3.53988309	    -12.24003619	     56.36232972	      0.98370823	     14.93284650	      0.00000000	      0.00000000	     40.46416262	     -3.30809517	     -6.05616885	     21.88116897	      0.38189844	    -19.88533595	      0.00000000	      0.00000000	    -22.33641137	      0.84691047	     -2.53707499	     88.98281706	    -16.39110519	     49.38898416	     55.79172439	     86.81139715	      0.00000000	      0.00000000	     88.32029908	     -6.84991060	     44.00903725	     47.93872283	     83.81913361	      0.00000000	      0.00000000
      2.07500000	      5.63220667	      3.17239571	     -0.91629458	     -0.38247800	      0.88099102	     -0.80989783	     25.56574296	     -3.55801324	    -12.24593078	     56.60343747	      0.98791635	     15.06137040	      0.00000000	      0.00000000	     40.44325540	     -3.30415523	     -6.07163780	     21.82274359	      0.38087873	    -19.98246472	      0.00000000	      0.00000000	    -22.49380242	      0.85796932	     -2.55577573	     89.05172921	    -16.46564052	     49.29982244	     55.84929364	     86.94909423	      0.00000000	      0.00000000	     88.44052863	     -6.75822587	     44.01242292	     47.83259758	     83.19043188	      0.00000000	      0.00000000
      2.08000000	      5.62414016	      3.14132787	     -0.88515574	     -0.38294662	      0.87999377	     -0.81002767	     25.73250045	     -3.54095287	    -12.24235371	     56.86295167	      0.99244573	     15.21565569	      0.00000000	      0.00000000	     40.49999983	     -3.34690144	     -6.13478134	     21.77053894	      0.37996758	    -20.01763166	      0.00000000	      0.00000000	    -22.57020125	      0.85943649	     -2.60379738	     89.12096468	    -16.48056041	     49.25415593	     55.84336432	     86.86118626	      0.00000000	      0.00000000	     88.53388969	     -6.64675565	     43.85838692	     47.67017049	     83.70351948	      0.00000000	      0.00000000
      2.08500000	      5.64048210	      3.16064791	     -0.88661022	     -0.38338794	      0.87894414	     -0.81018926	     25.90474583	     -3.57988391	    -12.20259409	     57.18986069	      0.99815137	     15.32972279	      0.00000000	      0.00000000	     40.51389505	     -3.32910286	     -6.09719305	     21.69770175	      0.37869634	    -20.07432533	      0.00000000	      0.00000000	    -22.66820599	      0.82845058	     -2.70352435	     89.17535297	    -16.37131856	     49.06875008	     55.77799076	     87.09031127	      0.00000000	      0.00000000	     88.65966796	     -6.81860273	     44.21829463	     47.90029038	     81.11821299	      0.00000000	      0.00000000
      2.09000000	      5.60580251	      3.18737222	     -0.88409393	     -0.38388402	      0.87792107	     -0.81037688	     26.13067931	     -3.61217280	    -12.10366375	     57.46443826	      1.00294365	     15.37890187	      0.00000000	      0.00000000	     40.58201975	     -3.31374123	     -6.10141413	     21.63861690	      0.37766511	    -20.05103530	      0.00000000	      0.00000000	    -22.71268164	      0.76173592	     -2.60403108	     89.25873781	    -16.68816873	     49.28088358	     56.10571038	     86.29595634	      0.00000000	      0.00000000	     88.79720852	     -6.69766966	     44.68143561	     47.94219333	     79.96288812	      0.00000000	      0.00000000
      2.09500000	      5.70648182	      3.13408250	     -0.80568992	     -0.38434852	      0.87708487	     -0.81054194	     26.14751575	     -3.61810265	    -12.21736122	     57.68852930	      1.00685478	     15.59453505	      0.00000000	      0.00000000	     40.49134976	     -3.31826038	     -6.04391993	     21.50798961	      0.37538523	    -20.17969258	      0.00000000	      0.00000000	    -22.89270200	      0.82965746	     -2.74398506	     89.30237065	    -16.50500606	     48.98455345	     55.83718105	     86.80729712	      0.00000000	      0.00000000	     88.80016063	     -6.51545658	     43.74318866	     47.54193082	     83.91368325	      0.00000000	      0.00000000
